<svg width="134" height="44" viewBox="0 0 134 44" fill="none" xmlns="http://www.w3.org/2000/svg">
<g clip-path="url(#clip0_6590_34098)">
<path d="M60.7416 5.03259C60.7416 3.5814 61.1315 2.49157 61.9132 1.76692C62.693 1.04037 63.9197 0.679001 65.5897 0.679001H70.4986V2.21959H65.5897C64.5892 2.21959 63.857 2.45163 63.391 2.91761C62.925 3.37028 62.693 4.074 62.693 5.03259V7.49754H69.4925V9.05905H62.693V15.0578H60.7416V5.03259ZM79.4055 5.17714C79.9951 5.17714 80.4877 5.32169 80.8853 5.60889L80.4326 7.19132C79.9666 6.91744 79.474 6.7805 78.9529 6.7805C78.3366 6.7805 77.8098 7.04107 77.3704 7.5603C76.933 8.08144 76.6096 8.77946 76.4042 9.65626V15.0578H74.5974V7.5603C74.5974 7.2731 74.5422 7.03916 74.4338 6.86228C74.3235 6.67018 74.1257 6.46477 73.8385 6.24604L75.05 5.17714C75.5293 5.43771 75.8641 5.72491 76.0562 6.04063C76.2616 6.34114 76.3776 6.76718 76.4061 7.31495C76.7066 6.64355 77.1118 6.12432 77.6177 5.75344C78.1236 5.36924 78.7208 5.17904 79.4055 5.17904V5.17714ZM85.7809 3.51292C85.4652 3.51292 85.1913 3.40261 84.9593 3.18389C84.7405 2.95185 84.6302 2.67796 84.6302 2.36224C84.6302 2.04651 84.7405 1.78024 84.9593 1.56151C85.1913 1.32947 85.4652 1.21155 85.7809 1.21155C86.0966 1.21155 86.3629 1.32757 86.5816 1.56151C86.8137 1.78024 86.9316 2.04841 86.9316 2.36224C86.9316 2.67606 86.8156 2.95185 86.5816 3.18389C86.3629 3.40261 86.0947 3.51292 85.7809 3.51292ZM86.2336 15.2823C85.7277 15.0084 85.3701 14.7003 85.1647 14.3579C84.9726 14.0022 84.8775 13.5153 84.8775 12.8991V5.40157H86.6843V12.8991C86.6843 13.1863 86.7395 13.426 86.8479 13.6181C86.9582 13.7968 87.156 13.9946 87.4432 14.2134L86.2317 15.2823H86.2336ZM100.51 12.8991C100.51 13.1863 100.565 13.426 100.673 13.6181C100.784 13.7968 100.981 13.9946 101.269 14.2134L100.057 15.2823C99.4142 14.9399 98.9957 14.3921 98.8036 13.639C98.1189 14.7345 97.0443 15.2823 95.5779 15.2823C94.7296 15.2823 93.9822 15.0902 93.3393 14.7079C92.7098 14.3104 92.2171 13.7569 91.8596 13.0437C91.5172 12.3323 91.346 11.5031 91.346 10.5578V9.89971C91.346 8.98297 91.5096 8.16703 91.8387 7.45569C92.181 6.74436 92.6679 6.18899 93.2975 5.79148C93.9403 5.38065 94.7011 5.17524 95.5779 5.17524C96.974 5.17524 98.0162 5.65453 98.7009 6.61312V2.40408C98.7009 2.11688 98.6458 1.88294 98.5374 1.70606C98.4423 1.52728 98.2426 1.31616 97.9421 1.0689L99.1745 0C99.6804 0.273883 100.03 0.589608 100.223 0.945275C100.415 1.28763 100.51 1.77453 100.51 2.40408V12.901V12.8991ZM98.7028 8.6273C98.4841 7.9426 98.1475 7.43667 97.6967 7.10763C97.2592 6.76528 96.6906 6.5941 95.9925 6.5941C95.1291 6.5941 94.4386 6.90222 93.9175 7.51846C93.4116 8.13469 93.1567 8.92971 93.1567 9.90162V10.5597C93.1567 11.5316 93.4097 12.3266 93.9175 12.9429C94.4253 13.5591 95.1157 13.8672 95.9925 13.8672C96.6906 13.8672 97.2592 13.7036 97.6967 13.3746C98.1494 13.0322 98.4841 12.5187 98.7028 11.834V8.6292V8.6273ZM113.397 12.8991C113.397 13.1863 113.453 13.426 113.561 13.6181C113.671 13.7968 113.869 13.9946 114.156 14.2134L112.945 15.2823C112.247 14.9266 111.823 14.4188 111.67 13.7626C111.341 14.2286 110.883 14.5976 110.293 14.8714C109.719 15.1453 109.053 15.2823 108.3 15.2823C107.273 15.2823 106.478 15.0426 105.917 14.5633C105.356 14.0707 105.074 13.3651 105.074 12.4483C105.074 11.5316 105.403 10.7974 106.06 10.3334C106.718 9.86738 107.621 9.57258 108.772 9.45085L110.168 9.28728C110.757 9.21881 111.14 9.11611 111.319 8.97916C111.511 8.82891 111.6 8.57595 111.585 8.21838C111.53 7.68393 111.311 7.25979 110.927 6.94406C110.558 6.62834 109.989 6.47238 109.223 6.47238C108.662 6.47238 108.182 6.56748 107.785 6.75957C107.387 6.93836 107.024 7.23126 106.697 7.64209L105.464 6.75957C105.807 6.23844 106.278 5.84853 106.881 5.58797C107.498 5.31408 108.277 5.17714 109.223 5.17714C110.605 5.17714 111.646 5.46434 112.346 6.04063C113.044 6.61503 113.394 7.45189 113.394 8.54742V12.9029L113.397 12.8991ZM108.734 13.9471C109.597 13.9471 110.288 13.7208 110.809 13.27C111.343 12.8173 111.61 12.2429 111.61 11.5449V10.1679C111.294 10.3467 110.809 10.4627 110.151 10.5179L108.939 10.6415C107.515 10.805 106.803 11.387 106.803 12.3875C106.803 12.8934 106.967 13.2852 107.296 13.5591C107.625 13.8197 108.104 13.949 108.734 13.949V13.9471ZM126.677 5.40157V16.2066C126.677 17.4125 126.355 18.295 125.711 18.8561C125.068 19.4304 124.06 19.7195 122.69 19.7195H120.144V18.3235H122.69C123.43 18.3235 123.978 18.1447 124.334 17.7891C124.689 17.4467 124.868 16.9123 124.868 16.1876V13.5382C124.21 14.7022 123.143 15.2842 121.663 15.2842C120.623 15.2842 119.807 14.9894 119.219 14.4017C118.645 13.7987 118.356 12.9638 118.356 11.8949V7.58122C118.356 7.29403 118.301 7.06008 118.192 6.8832C118.082 6.6911 117.884 6.47999 117.597 6.24604L118.808 5.17714C119.314 5.45102 119.664 5.76675 119.856 6.12242C120.062 6.46477 120.165 6.95167 120.165 7.58122V11.7503C120.165 12.4217 120.336 12.941 120.678 13.3118C121.034 13.6675 121.526 13.8463 122.158 13.8463C122.898 13.8463 123.514 13.5933 124.007 13.0855C124.499 12.5644 124.786 11.9215 124.87 11.155V5.40348H126.677V5.40157ZM64.4599 19.9059H59.9199V18.3653H70.9703V19.9059H66.4094V32.7442H64.458V19.9059H64.4599ZM79.8335 30.5874C79.8335 30.8746 79.8886 31.1142 79.997 31.3063C80.1074 31.4851 80.3052 31.6829 80.5924 31.9016L79.3808 32.9705C78.6828 32.6149 78.2586 32.107 78.1065 31.4509C77.7774 31.9168 77.3191 32.2858 76.7295 32.5597C76.1551 32.8336 75.4894 32.9705 74.7362 32.9705C73.7091 32.9705 72.9141 32.7309 72.353 32.2516C71.792 31.759 71.5105 31.0533 71.5105 30.1366C71.5105 29.2198 71.8395 28.4857 72.4957 28.0216C73.1519 27.5575 74.0572 27.2608 75.2079 27.1391L76.6039 26.9755C77.1935 26.9071 77.5758 26.8044 77.7546 26.6674C77.9467 26.5172 78.0361 26.2642 78.0209 25.9066C77.9657 25.3722 77.747 24.948 77.3628 24.6323C76.9938 24.3166 76.4252 24.1606 75.6587 24.1606C75.0976 24.1606 74.6183 24.2557 74.2208 24.4478C73.8233 24.6266 73.46 24.9195 73.1329 25.3303L71.9004 24.4478C72.2427 23.9267 72.7144 23.5368 73.3173 23.2762C73.9336 23.0023 74.7134 22.8654 75.6587 22.8654C77.0414 22.8654 78.0818 23.1526 78.7817 23.7289C79.4797 24.3033 79.8297 25.1401 79.8297 26.2357V30.5912L79.8335 30.5874ZM75.1699 31.6353C76.0333 31.6353 76.7238 31.409 77.2449 30.9582C77.7793 30.5056 78.0456 29.9312 78.0456 29.2332V27.8561C77.7299 28.0349 77.2449 28.1509 76.5868 28.2061L75.3753 28.3297C73.9507 28.4933 73.2394 29.0753 73.2394 30.0757C73.2394 30.5817 73.4029 30.9735 73.732 31.2473C74.061 31.5079 74.5403 31.6372 75.1699 31.6372V31.6353ZM86.0529 32.9705C85.547 32.6966 85.1894 32.3885 84.984 32.0462C84.7919 31.6905 84.6968 31.2036 84.6968 30.5874V20.0695C84.6968 19.7823 84.6416 19.5484 84.5332 19.3715C84.4229 19.1794 84.2251 18.974 83.9379 18.7553L85.1285 17.6863C85.6497 17.9602 86.0053 18.276 86.1974 18.6316C86.4028 18.974 86.5056 19.4533 86.5056 20.0695V30.5874C86.5056 30.8746 86.5531 31.1142 86.6501 31.3063C86.7604 31.4851 86.9582 31.6829 87.2454 31.9016L86.0548 32.9705H86.0529ZM100.145 32.7442H98.2958L97.4133 29.3967C97.263 28.8756 97.0443 28.4933 96.7552 28.246C96.4813 27.9988 96.0439 27.8485 95.441 27.7934L93.6132 29.6421V32.7442H91.8063V20.0904C91.8063 19.7899 91.7512 19.5503 91.6427 19.3715C91.5477 19.1927 91.348 18.9873 91.0474 18.7553L92.2799 17.6863C92.7725 17.9602 93.1149 18.276 93.307 18.6316C93.5124 18.9873 93.6151 19.4742 93.6151 20.0904V27.4244L97.8869 23.0898H100.126L96.7362 26.5C97.4076 26.637 97.9344 26.9318 98.3186 27.3826C98.7028 27.82 99.0167 28.4914 99.2639 29.3948L100.146 32.7423L100.145 32.7442ZM105.114 21.2012C104.799 21.2012 104.525 21.0909 104.293 20.8721C104.074 20.6401 103.964 20.3662 103.964 20.0505C103.964 19.7348 104.074 19.4685 104.293 19.2498C104.525 19.0177 104.799 18.8998 105.114 18.8998C105.43 18.8998 105.696 19.0158 105.915 19.2498C106.147 19.4685 106.265 19.7367 106.265 20.0505C106.265 20.3643 106.149 20.6401 105.915 20.8721C105.696 21.0909 105.428 21.2012 105.114 21.2012ZM105.567 32.9705C105.061 32.6966 104.704 32.3885 104.498 32.0462C104.306 31.6905 104.211 31.2036 104.211 30.5874V23.0898H106.018V30.5874C106.018 30.8746 106.073 31.1142 106.181 31.3063C106.292 31.4851 106.489 31.6829 106.777 31.9016L105.565 32.9705H105.567ZM115.299 31.5745C115.86 31.5745 116.34 31.4927 116.737 31.3272C117.148 31.1637 117.546 30.8955 117.928 30.5265L119.037 31.5326C118.626 32.0252 118.112 32.3885 117.496 32.6206C116.893 32.8526 116.148 32.9705 115.258 32.9705C113.846 32.9705 112.779 32.67 112.053 32.0671C111.341 31.4509 110.984 30.5398 110.984 29.3359V26.2756C110.984 25.2219 111.347 24.3927 112.072 23.7897C112.812 23.1735 113.818 22.8654 115.092 22.8654C116.366 22.8654 117.42 23.1868 118.131 23.8316C118.858 24.4745 119.219 25.3988 119.219 26.6047C119.219 27.413 119.075 27.9665 118.788 28.2689C118.514 28.5694 117.979 28.7215 117.186 28.7215H112.791V29.3587C112.791 30.0986 112.996 30.652 113.407 31.0229C113.818 31.3919 114.447 31.5783 115.297 31.5783L115.299 31.5745ZM115.094 24.2614C114.367 24.2614 113.801 24.4535 113.39 24.8358C112.992 25.22 112.794 25.7393 112.794 26.3973V27.4244H116.307C116.732 27.4244 117.019 27.3559 117.171 27.219C117.334 27.082 117.418 26.8215 117.418 26.4392C117.418 25.7545 117.213 25.22 116.802 24.8377C116.391 24.4535 115.822 24.2633 115.098 24.2633L115.094 24.2614ZM126.859 32.9705C125.956 32.9705 125.224 32.8412 124.661 32.5806C124.113 32.3067 123.607 31.8693 123.141 31.2664L124.292 30.2811C124.689 30.7471 125.072 31.0762 125.443 31.2664C125.827 31.4585 126.298 31.5536 126.859 31.5536C128.353 31.5536 129.098 31.0819 129.098 30.1366C129.098 29.8361 129.016 29.5964 128.851 29.4177C128.701 29.2256 128.427 29.0677 128.029 28.946C127.645 28.809 127.063 28.6721 126.283 28.5351C125.325 28.343 124.606 28.014 124.126 27.5499C123.647 27.0706 123.407 26.4411 123.407 25.6594C123.407 24.7826 123.729 24.0979 124.374 23.6053C125.016 23.1126 125.901 22.8654 127.023 22.8654C128.68 22.8654 129.844 23.3922 130.515 24.4478L129.364 25.414C129.035 25.0165 128.687 24.7293 128.316 24.5505C127.961 24.3717 127.529 24.2843 127.023 24.2843C126.42 24.2843 125.954 24.4079 125.627 24.6532C125.298 24.9005 125.134 25.2428 125.134 25.6803C125.134 26.0778 125.292 26.3859 125.606 26.6047C125.922 26.8101 126.42 26.9812 127.105 27.1182C128.008 27.3236 128.722 27.5423 129.241 27.7763C129.762 27.995 130.152 28.2974 130.412 28.6797C130.673 29.0487 130.802 29.5432 130.802 30.1594C130.802 32.0348 129.488 32.9743 126.858 32.9743L126.859 32.9705Z" fill="#FAFAFA"/>
<path d="M62.5449 44C62.0218 44 61.5501 43.8839 61.1298 43.65C60.7133 43.4161 60.3842 43.0946 60.1408 42.6838C59.903 42.273 59.7832 41.8108 59.7832 41.2992C59.7832 40.7875 59.903 40.3254 60.1408 39.9145C60.3842 39.5037 60.7133 39.1823 61.1298 38.9483C61.5501 38.7144 62.0218 38.5984 62.5449 38.5984C62.9309 38.5984 63.2847 38.6612 63.61 38.7886C63.9352 38.9103 64.211 39.0929 64.4392 39.3364L64.1958 39.5874C63.7697 39.1671 63.2239 38.956 62.5601 38.956C62.1131 38.956 61.708 39.0568 61.3428 39.2603C60.9776 39.4638 60.6904 39.7453 60.4831 40.1047C60.2758 40.4604 60.1712 40.8579 60.1712 41.2992C60.1712 41.7404 60.2758 42.1417 60.4831 42.5012C60.6904 42.8569 60.9776 43.1346 61.3428 43.3381C61.708 43.5416 62.1131 43.6424 62.5601 43.6424C63.2201 43.6424 63.764 43.4294 64.1958 43.0033L64.4392 43.2544C64.211 43.4978 63.9314 43.6823 63.6023 43.8098C63.2771 43.9372 62.9252 44 62.5449 44ZM70.6548 43.9619L69.3843 42.1817C69.196 42.2064 69.0248 42.2197 68.867 42.2197H67.3454V43.9619H66.9574V38.6364H68.867C69.5365 38.6364 70.0614 38.7962 70.4418 39.1157C70.8222 39.4295 71.0124 39.8689 71.0124 40.4319C71.0124 40.8522 70.904 41.2079 70.6853 41.497C70.4722 41.7804 70.166 41.982 69.7647 42.098L71.0961 43.9619H70.6548ZM68.867 41.8774C69.4357 41.8774 69.8693 41.7537 70.1679 41.5046C70.4665 41.2516 70.6168 40.8941 70.6168 40.4319C70.6168 39.9697 70.4665 39.6159 70.1679 39.3668C69.8693 39.1138 69.4357 38.9864 68.867 38.9864H67.3454V41.8774H68.867ZM76.9446 42.4632H73.8558L73.1787 43.9619H72.7603L75.21 38.6364H75.598L78.0477 43.9619H77.6293L76.9446 42.4632ZM76.8001 42.136L75.4002 39.0625L74.008 42.136H76.8001ZM80.6192 38.9864V41.2611H83.4569V41.6111H80.6192V43.9619H80.2312V38.6364H83.7917V38.9864H80.6192ZM87.3046 38.9864H85.3874V38.6364H89.6098V38.9864H87.6926V43.9619H87.3046V38.9864ZM96.3598 44C95.9699 44 95.5972 43.9334 95.2415 43.8022C94.8915 43.6652 94.6176 43.4902 94.4198 43.2772L94.5948 42.9881C94.7831 43.1859 95.0342 43.3476 95.348 43.475C95.6675 43.5967 96.0023 43.6576 96.3522 43.6576C96.8601 43.6576 97.2424 43.5606 97.501 43.3685C97.7597 43.1764 97.889 42.9254 97.889 42.6153C97.889 42.3776 97.8206 42.1874 97.6836 42.0447C97.5467 41.9021 97.3774 41.7937 97.1739 41.7176C96.9704 41.6415 96.6965 41.5635 96.3522 41.4818C95.9623 41.3848 95.6466 41.2916 95.4089 41.2003C95.1749 41.109 94.9752 40.9701 94.8078 40.7818C94.6462 40.5897 94.5644 40.333 94.5644 40.0134C94.5644 39.7548 94.6329 39.5189 94.7698 39.3059C94.9067 39.0872 95.1141 38.916 95.3936 38.7886C95.677 38.6612 96.0308 38.5984 96.4511 38.5984C96.7459 38.5984 97.035 38.6421 97.3184 38.7277C97.6018 38.8133 97.8491 38.9312 98.0564 39.0777L97.9118 39.3896C97.6988 39.2432 97.463 39.1309 97.2043 39.0549C96.9514 38.9788 96.7003 38.9407 96.4511 38.9407C95.9585 38.9407 95.5857 39.0396 95.3328 39.2374C95.0798 39.4353 94.9524 39.692 94.9524 40.0058C94.9524 40.2436 95.0209 40.4338 95.1578 40.5764C95.2947 40.7191 95.464 40.8275 95.6675 40.9036C95.871 40.9796 96.1468 41.0614 96.4968 41.147C96.8867 41.244 97.1986 41.3372 97.4326 41.4285C97.6665 41.5198 97.8643 41.6586 98.026 41.8469C98.1933 42.0295 98.277 42.2787 98.277 42.5925C98.277 42.8512 98.2067 43.087 98.064 43.3C97.9271 43.5131 97.714 43.6823 97.4249 43.8098C97.1358 43.9372 96.7802 44 96.3598 44ZM103.066 44C102.543 44 102.071 43.8839 101.651 43.65C101.235 43.4161 100.906 43.0946 100.662 42.6838C100.424 42.273 100.305 41.8108 100.305 41.2992C100.305 40.7875 100.424 40.3254 100.662 39.9145C100.906 39.5037 101.235 39.1823 101.651 38.9483C102.071 38.7144 102.543 38.5984 103.066 38.5984C103.452 38.5984 103.806 38.6612 104.131 38.7886C104.456 38.9103 104.732 39.0929 104.961 39.3364L104.717 39.5874C104.291 39.1671 103.745 38.956 103.081 38.956C102.634 38.956 102.229 39.0568 101.864 39.2603C101.499 39.4638 101.212 39.7453 101.004 40.1047C100.797 40.4604 100.693 40.8579 100.693 41.2992C100.693 41.7404 100.797 42.1417 101.004 42.5012C101.212 42.8569 101.499 43.1346 101.864 43.3381C102.229 43.5416 102.634 43.6424 103.081 43.6424C103.741 43.6424 104.285 43.4294 104.717 43.0033L104.961 43.2544C104.732 43.4978 104.453 43.6823 104.124 43.8098C103.798 43.9372 103.447 44 103.066 44ZM111.813 38.6364V43.9619H111.425V41.4285H107.865V43.9619H107.477V38.6364H107.865V41.0862H111.425V38.6364H111.813ZM117.15 44C116.627 44 116.155 43.8839 115.735 43.65C115.315 43.4123 114.982 43.087 114.739 42.6762C114.501 42.2654 114.381 41.807 114.381 41.2992C114.381 40.7914 114.501 40.333 114.739 39.9222C114.982 39.5113 115.315 39.1899 115.735 38.956C116.155 38.7182 116.627 38.5984 117.15 38.5984C117.673 38.5984 118.145 38.7144 118.565 38.9483C118.986 39.1823 119.317 39.5037 119.554 39.9145C119.798 40.3254 119.919 40.7875 119.919 41.2992C119.919 41.8108 119.798 42.273 119.554 42.6838C119.317 43.0946 118.986 43.4161 118.565 43.65C118.145 43.8839 117.673 44 117.15 44ZM117.15 43.6424C117.597 43.6424 118 43.5416 118.36 43.3381C118.719 43.1346 119.005 42.8569 119.212 42.5012C119.419 42.1417 119.524 41.7404 119.524 41.2992C119.524 40.8579 119.419 40.4604 119.212 40.1047C119.005 39.7453 118.719 39.4638 118.36 39.2603C118 39.0568 117.597 38.956 117.15 38.956C116.703 38.956 116.298 39.0568 115.933 39.2603C115.573 39.4638 115.288 39.7453 115.081 40.1047C114.874 40.4604 114.769 40.8579 114.769 41.2992C114.769 41.7404 114.874 42.1417 115.081 42.5012C115.288 42.8569 115.573 43.1346 115.933 43.3381C116.298 43.5416 116.703 43.6424 117.15 43.6424ZM124.741 44C124.218 44 123.746 43.8839 123.326 43.65C122.906 43.4123 122.573 43.087 122.329 42.6762C122.091 42.2654 121.972 41.807 121.972 41.2992C121.972 40.7914 122.091 40.333 122.329 39.9222C122.573 39.5113 122.906 39.1899 123.326 38.956C123.746 38.7182 124.218 38.5984 124.741 38.5984C125.264 38.5984 125.736 38.7144 126.156 38.9483C126.576 39.1823 126.907 39.5037 127.145 39.9145C127.388 40.3254 127.51 40.7875 127.51 41.2992C127.51 41.8108 127.388 42.273 127.145 42.6838C126.907 43.0946 126.576 43.4161 126.156 43.65C125.736 43.8839 125.264 44 124.741 44ZM124.741 43.6424C125.188 43.6424 125.591 43.5416 125.951 43.3381C126.31 43.1346 126.595 42.8569 126.803 42.5012C127.01 42.1417 127.115 41.7404 127.115 41.2992C127.115 40.8579 127.01 40.4604 126.803 40.1047C126.595 39.7453 126.31 39.4638 125.951 39.2603C125.591 39.0568 125.188 38.956 124.741 38.956C124.294 38.956 123.889 39.0568 123.524 39.2603C123.164 39.4638 122.879 39.7453 122.672 40.1047C122.464 40.4604 122.36 40.8579 122.36 41.2992C122.36 41.7404 122.464 42.1417 122.672 42.5012C122.879 42.8569 123.164 43.1346 123.524 43.3381C123.889 43.5416 124.294 43.6424 124.741 43.6424ZM130.074 38.6364H130.462V43.612H133.528V43.9619H130.074V38.6364Z" fill="#FAFAFA"/>
<path fill-rule="evenodd" clip-rule="evenodd" d="M5.70589 14.2076C2.55434 14.2076 0 16.762 0 19.9135V36.5063C0 39.6578 2.55434 42.2121 5.70589 42.2121H27.5271C30.6787 42.2121 33.233 39.6578 33.233 36.5063V19.9135C33.233 16.762 30.6787 14.2076 27.5271 14.2076H5.70589ZM13.0893 34.6309L23.299 28.2099L13.0893 21.7889C12.0756 21.1517 10.7575 21.8802 10.7575 23.0765V33.3414C10.7575 34.5377 12.0756 35.2662 13.0893 34.629V34.6309Z" fill="url(#paint0_linear_6590_34098)"/>
<path d="M40.8523 18.004L23.2991 28.248L40.8561 38.433C42.3777 39.3155 44.2834 38.218 44.2834 36.4587V19.9763C44.2834 18.2151 42.372 17.1177 40.8504 18.0059L40.8523 18.004Z" fill="url(#paint1_linear_6590_34098)"/>
<path d="M10.6744 13.3443C14.3509 13.3443 17.3313 10.3639 17.3313 6.68739C17.3313 3.0109 14.3509 0.0305176 10.6744 0.0305176C6.99796 0.0305176 4.01758 3.0109 4.01758 6.68739C4.01758 10.3639 6.99796 13.3443 10.6744 13.3443Z" fill="#FAFAFA"/>
<path d="M10.6744 13.3443C14.3509 13.3443 17.3313 10.3639 17.3313 6.68739C17.3313 3.0109 14.3509 0.0305176 10.6744 0.0305176C6.99796 0.0305176 4.01758 3.0109 4.01758 6.68739C4.01758 10.3639 6.99796 13.3443 10.6744 13.3443Z" fill="url(#paint2_linear_6590_34098)"/>
<path d="M23.0369 13.3441C25.768 13.3441 27.982 11.1301 27.982 8.39896C27.982 5.66786 25.768 3.45386 23.0369 3.45386C20.3058 3.45386 18.0918 5.66786 18.0918 8.39896C18.0918 11.1301 20.3058 13.3441 23.0369 13.3441Z" fill="#FAFAFA"/>
<path d="M23.0369 13.3441C25.768 13.3441 27.982 11.1301 27.982 8.39896C27.982 5.66786 25.768 3.45386 23.0369 3.45386C20.3058 3.45386 18.0918 5.66786 18.0918 8.39896C18.0918 11.1301 20.3058 13.3441 23.0369 13.3441Z" fill="url(#paint3_linear_6590_34098)"/>
</g>
<defs>
<linearGradient id="paint0_linear_6590_34098" x1="1.18112" y1="14.3864" x2="29.7828" y2="40.0021" gradientUnits="userSpaceOnUse">
<stop offset="0.01" stop-color="#1ED760"/>
<stop offset="1" stop-color="#0FA7FD"/>
</linearGradient>
<linearGradient id="paint1_linear_6590_34098" x1="24.0449" y1="17.8256" x2="44.8298" y2="33.4605" gradientUnits="userSpaceOnUse">
<stop offset="0.01" stop-color="#1ED760"/>
<stop offset="1" stop-color="#0FA7FD"/>
</linearGradient>
<linearGradient id="paint2_linear_6590_34098" x1="3.57632" y1="1.32956" x2="16.7322" y2="11.2597" gradientUnits="userSpaceOnUse">
<stop offset="0.01" stop-color="#1ED760"/>
<stop offset="1" stop-color="#0FA7FD"/>
</linearGradient>
<linearGradient id="paint3_linear_6590_34098" x1="17.7628" y1="4.42005" x2="27.5369" y2="11.7959" gradientUnits="userSpaceOnUse">
<stop offset="0.01" stop-color="#1ED760"/>
<stop offset="1" stop-color="#0FA7FD"/>
</linearGradient>
<clipPath id="clip0_6590_34098">
<rect width="133.527" height="44" fill="white"/>
</clipPath>
</defs>
</svg>
