<?xml version="1.0" encoding="UTF-8"?>
<svg xmlns="http://www.w3.org/2000/svg" xmlns:xlink="http://www.w3.org/1999/xlink" width="24px" height="24px" viewBox="0 0 24 24" version="1.1">
<g id="surface1">
<path style=" stroke:none;fill-rule:nonzero;fill:rgb(11.764706%,84.313726%,37.64706%);fill-opacity:1;" d="M 12 12 C 15.308594 12 18 9.308594 18 6 C 18 2.691406 15.308594 0 12 0 C 8.691406 0 6 2.691406 6 6 C 6 9.308594 8.691406 12 12 12 Z M 12 2 C 14.207031 2 16 3.792969 16 6 C 16 8.207031 14.207031 10 12 10 C 9.792969 10 8 8.207031 8 6 C 8 3.792969 9.792969 2 12 2 Z M 21 23 C 21 23.550781 20.554688 24 20 24 C 19.445312 24 19 23.550781 19 23 C 19 19.980469 17.074219 17.410156 14.390625 16.429688 L 12.875 18.707031 L 13.96875 22.695312 C 14.148438 23.363281 13.5625 24 12.765625 24 L 11.234375 24 C 10.4375 24 9.851562 23.363281 10.03125 22.695312 L 11.125 18.707031 L 9.609375 16.429688 C 6.925781 17.410156 5 19.980469 5 23 C 5 23.554688 4.550781 24 4 24 C 3.449219 24 3 23.554688 3 23 C 3 18.039062 7.039062 14 12 14 C 16.960938 14 21 18.039062 21 23 Z M 21 23 "/>
</g>
</svg>
