<?xml version="1.0" encoding="UTF-8"?>
<svg xmlns="http://www.w3.org/2000/svg" xmlns:xlink="http://www.w3.org/1999/xlink" width="24px" height="24px" viewBox="0 0 24 24" version="1.1">
<g id="surface1">
<path style=" stroke:none;fill-rule:nonzero;fill:rgb(11.764706%,84.313726%,37.64706%);fill-opacity:1;" d="M 22 11 L 5.449219 11 L 21.503906 6.832031 C 22.558594 6.558594 23.191406 5.511719 22.9375 4.40625 L 22.589844 3.152344 C 22.164062 0.96875 19.773438 -0.488281 17.644531 0.140625 L 2.972656 4.0625 C 0.878906 4.621094 -0.394531 6.789062 0.136719 8.910156 L 1 12.132812 L 1 19 C 1 21.757812 3.242188 24 6 24 L 19 24 C 21.757812 24 24 21.757812 24 19 L 24 13 C 24 11.898438 23.101562 11 22 11 Z M 11.445312 3.867188 L 8.761719 8.074219 L 6.074219 8.773438 L 8.753906 4.585938 Z M 17.257812 2.3125 L 14.613281 6.554688 L 11.605469 7.335938 L 14.300781 3.101562 Z M 21 4.894531 L 17.425781 5.824219 L 19.648438 2.261719 C 19.671875 2.273438 19.695312 2.277344 19.71875 2.292969 C 20.191406 2.578125 20.515625 3.035156 20.648438 3.632812 Z M 3.488281 5.992188 L 5.886719 5.351562 L 3.226562 9.511719 L 2.421875 9.722656 L 2.070312 8.410156 C 1.808594 7.359375 2.445312 6.273438 3.488281 5.992188 Z M 22 19 C 22 20.65625 20.652344 22 19 22 L 6 22 C 4.34375 22 3 20.65625 3 19 L 3 13 L 22 13 Z M 22 19 "/>
</g>
</svg>
