<?xml version="1.0" encoding="UTF-8"?>
<svg xmlns="http://www.w3.org/2000/svg" xmlns:xlink="http://www.w3.org/1999/xlink" width="24px" height="24px" viewBox="0 0 24 24" version="1.1">
<g id="surface1">
<path style=" stroke:none;fill-rule:nonzero;fill:rgb(98.039216%,98.039216%,98.039216%);fill-opacity:1;" d="M 12 0 C 5.046875 0 0 2.523438 0 6 L 0 19.546875 C 0 21.121094 1.054688 22.605469 2.972656 23.722656 C 3.285156 23.90625 3.640625 23.996094 3.992188 23.996094 C 4.339844 23.996094 4.6875 23.90625 4.996094 23.730469 C 5.625 23.371094 6 22.722656 6 22 L 6 11.324219 C 6 10.203125 5.371094 9.179688 4.359375 8.65625 C 2.859375 7.878906 2 6.910156 2 6 C 2 4.066406 6.019531 2 12 2 C 17.980469 2 22 4.066406 22 6 C 22 6.910156 21.140625 7.878906 19.640625 8.65625 C 18.628906 9.179688 18 10.203125 18 11.324219 L 18 22 C 18 22.722656 18.375 23.371094 19.003906 23.730469 C 19.3125 23.90625 19.660156 23.996094 20.007812 23.996094 C 20.359375 23.996094 20.714844 23.90625 21.027344 23.722656 C 22.945312 22.605469 24 21.121094 24 19.546875 L 24 6 C 24 2.523438 18.953125 0 12 0 Z M 3.441406 10.433594 C 3.785156 10.613281 4 10.953125 4 11.324219 L 3.980469 21.996094 C 3.238281 21.5625 2 20.671875 2 19.550781 L 2 9.523438 C 2.417969 9.847656 2.898438 10.152344 3.441406 10.433594 Z M 22 19.546875 C 22 20.671875 20.761719 21.5625 20 22 L 20 11.324219 C 20 10.953125 20.214844 10.609375 20.558594 10.429688 C 21.101562 10.152344 21.582031 9.847656 22 9.519531 Z M 12 10 C 10.617188 10 9.5 8.882812 9.5 7.5 C 9.5 6.117188 10.617188 5 12 5 C 13.382812 5 14.5 6.117188 14.5 7.5 C 14.5 8.882812 13.382812 10 12 10 Z M 12 11 C 9.792969 11 8 12.792969 8 15 L 8 17 C 8 17.882812 8.390625 18.671875 9 19.21875 L 9 23 C 9 23.554688 9.449219 24 10 24 C 10.550781 24 11 23.554688 11 23 L 11 20 L 13 20 L 13 23 C 13 23.554688 13.449219 24 14 24 C 14.550781 24 15 23.554688 15 23 L 15 19.21875 C 15.609375 18.671875 16 17.882812 16 17 L 16 15 C 16 12.792969 14.207031 11 12 11 Z M 11 18 C 10.449219 18 10 17.550781 10 17 L 10 15 C 10 13.898438 10.898438 13 12 13 C 13.101562 13 14 13.898438 14 15 L 14 17 C 14 17.550781 13.550781 18 13 18 Z M 11 18 "/>
</g>
</svg>
