<?xml version="1.0" encoding="UTF-8"?>
<svg xmlns="http://www.w3.org/2000/svg" xmlns:xlink="http://www.w3.org/1999/xlink" width="24px" height="24px" viewBox="0 0 24 24" version="1.1">
<g id="surface1">
<path style=" stroke:none;fill-rule:nonzero;fill:rgb(11.764706%,84.313726%,37.64706%);fill-opacity:1;" d="M 18.042969 5.53125 C 16.945312 4.105469 15.808594 2.632812 15.007812 1.035156 C 14.667969 0.363281 13.992188 -0.046875 13.253906 -0.00390625 C 12.542969 0.0351562 11.941406 0.492188 11.6875 1.183594 C 11.34375 2.117188 11 3.820312 11 5.527344 C 11 7.738281 11.6875 9.230469 12.238281 10.429688 C 12.707031 11.445312 13.078125 12.25 12.984375 13.277344 C 12.894531 14.253906 12.039062 15.011719 10.957031 15.003906 C 8.371094 14.972656 7.714844 11.699219 7.621094 8.960938 C 7.589844 8.0625 6.984375 7.304688 6.113281 7.074219 C 5.246094 6.847656 4.34375 7.207031 3.875 7.972656 C 2.664062 9.933594 2 12.074219 2 14 C 2 19.515625 6.523438 24 12.007812 24 C 17.515625 23.96875 22 19.480469 22 14.019531 C 22.054688 10.742188 20.015625 8.09375 18.042969 5.53125 Z M 11.992188 22.003906 C 7.613281 22.003906 4 18.414062 4 14.003906 C 4 12.464844 4.574219 10.648438 5.621094 9.03125 C 5.800781 14.132812 7.6875 16.964844 10.9375 17.003906 L 10.984375 17.003906 C 13.042969 17.003906 14.792969 15.453125 14.976562 13.457031 C 15.117188 11.898438 14.578125 10.726562 14.054688 9.59375 C 13.535156 8.464844 13 7.300781 13 5.527344 C 13 4.375 13.195312 3.144531 13.421875 2.324219 C 14.285156 3.929688 15.390625 5.363281 16.460938 6.753906 C 18.300781 9.148438 20.042969 11.410156 20 14.003906 C 20 18.390625 16.410156 21.976562 11.992188 22.003906 Z M 11.992188 22.003906 "/>
</g>
</svg>
