<?xml version="1.0" encoding="UTF-8"?>
<svg xmlns="http://www.w3.org/2000/svg" xmlns:xlink="http://www.w3.org/1999/xlink" width="24px" height="24px" viewBox="0 0 24 24" version="1.1">
<g id="surface1">
<path style=" stroke:none;fill-rule:nonzero;fill:rgb(11.764706%,84.313726%,37.64706%);fill-opacity:1;" d="M 23.230469 0.769531 C 22.757812 0.296875 22.125 0.0234375 21.457031 0 C 20.789062 -0.0195312 20.140625 0.210938 19.636719 0.648438 L 5.472656 13.128906 C 3.136719 13.570312 0 14.871094 0 17.597656 C 0 19.292969 0.675781 20.921875 1.875 22.121094 C 3.078125 23.320312 4.703125 23.996094 6.398438 23.996094 C 9.125 23.996094 10.425781 20.859375 10.867188 18.527344 L 23.351562 4.355469 C 23.789062 3.851562 24.019531 3.203125 23.996094 2.535156 C 23.972656 1.871094 23.699219 1.238281 23.230469 0.769531 Z M 10.140625 16.324219 L 7.671875 13.855469 L 9.679688 12.089844 L 11.90625 14.320312 Z M 6.398438 21.996094 C 5.234375 21.996094 4.113281 21.53125 3.289062 20.707031 C 2.464844 19.882812 2 18.761719 2 17.597656 C 2 16.089844 4.640625 15.308594 6.050781 15.058594 L 8.9375 17.945312 C 8.6875 19.359375 7.90625 21.996094 6.398438 21.996094 Z M 21.847656 3.035156 L 13.234375 12.816406 L 11.179688 10.765625 L 20.957031 2.152344 C 21.078125 2.046875 21.230469 1.992188 21.390625 2 C 21.546875 2.003906 21.699219 2.070312 21.8125 2.179688 C 21.925781 2.292969 21.992188 2.441406 21.996094 2.601562 C 22.003906 2.761719 21.953125 2.914062 21.847656 3.035156 Z M 21.847656 3.035156 "/>
</g>
</svg>

