<?xml version="1.0" encoding="UTF-8"?>
<svg xmlns="http://www.w3.org/2000/svg" xmlns:xlink="http://www.w3.org/1999/xlink" width="24px" height="24px" viewBox="0 0 24 24" version="1.1">
<g id="surface1">
<path style=" stroke:none;fill-rule:nonzero;fill:rgb(98.039216%,98.039216%,98.039216%);fill-opacity:1;" d="M 18.050781 5.53125 C 16.953125 4.105469 15.816406 2.628906 15.011719 1.035156 C 14.675781 0.359375 14 -0.046875 13.261719 -0.0078125 C 12.546875 0.0351562 11.945312 0.488281 11.691406 1.179688 C 11.351562 2.113281 11.003906 3.820312 11.003906 5.527344 C 11.003906 7.734375 11.691406 9.226562 12.246094 10.425781 C 12.714844 11.445312 13.085938 12.246094 12.992188 13.273438 C 12.902344 14.253906 12.046875 15.007812 10.964844 15 C 8.378906 14.972656 7.722656 11.699219 7.625 8.957031 C 7.59375 8.0625 6.988281 7.304688 6.121094 7.074219 C 5.253906 6.84375 4.351562 7.207031 3.878906 7.96875 C 2.671875 9.929688 2.007812 12.074219 2.007812 14 C 2.007812 19.515625 6.527344 24 12.011719 24 C 17.523438 23.96875 22.007812 19.480469 22.007812 14.015625 C 22.0625 10.742188 20.023438 8.09375 18.050781 5.53125 Z M 12 22 C 7.621094 22 4.003906 18.414062 4.003906 14 C 4.003906 12.460938 4.582031 10.644531 5.628906 9.027344 C 5.804688 14.132812 7.691406 16.964844 10.941406 17 L 10.988281 17 C 13.050781 17 14.800781 15.453125 14.984375 13.457031 C 15.125 11.898438 14.585938 10.726562 14.0625 9.589844 C 13.542969 8.464844 13.003906 7.296875 13.003906 5.527344 C 13.003906 4.375 13.203125 3.144531 13.429688 2.320312 C 14.292969 3.925781 15.394531 5.359375 16.464844 6.753906 C 18.308594 9.148438 20.050781 11.410156 20.007812 14.003906 C 20.007812 18.386719 16.414062 21.976562 12 22.003906 Z M 12 22 "/>
</g>
</svg>
