<?xml version="1.0" encoding="UTF-8"?>
<svg xmlns="http://www.w3.org/2000/svg" xmlns:xlink="http://www.w3.org/1999/xlink" width="24px" height="24px" viewBox="0 0 24 24" version="1.1">
<g id="surface1">
<path style=" stroke:none;fill-rule:nonzero;fill:rgb(11.764706%,84.313726%,37.64706%);fill-opacity:1;" d="M 22.554688 0.921875 C 22.101562 0.546875 21.574219 0.273438 21.003906 0.128906 C 20.433594 -0.0195312 19.839844 -0.0390625 19.261719 0.0703125 L 10.078125 1.792969 C 8.933594 2.007812 7.898438 2.617188 7.152344 3.511719 C 6.40625 4.410156 6 5.539062 6 6.707031 L 6 16.554688 C 5.394531 16.195312 4.703125 16.003906 4 16 C 3.207031 16 2.433594 16.234375 1.777344 16.675781 C 1.121094 17.113281 0.605469 17.738281 0.304688 18.46875 C 0 19.199219 -0.078125 20.003906 0.078125 20.78125 C 0.230469 21.554688 0.613281 22.269531 1.171875 22.828125 C 1.730469 23.386719 2.445312 23.769531 3.21875 23.921875 C 3.996094 24.078125 4.800781 24 5.53125 23.695312 C 6.261719 23.394531 6.886719 22.878906 7.324219 22.222656 C 7.765625 21.566406 8 20.792969 8 20 L 8 10.875 C 8 10.410156 8.164062 9.957031 8.460938 9.597656 C 8.757812 9.238281 9.171875 8.996094 9.632812 8.910156 L 20.816406 6.808594 C 20.960938 6.78125 21.109375 6.789062 21.253906 6.824219 C 21.394531 6.863281 21.527344 6.929688 21.640625 7.023438 C 21.753906 7.121094 21.84375 7.238281 21.90625 7.371094 C 21.96875 7.507812 22 7.652344 22 7.800781 L 22 13.558594 C 21.394531 13.199219 20.703125 13.003906 20 13 C 19.207031 13 18.433594 13.234375 17.777344 13.675781 C 17.121094 14.113281 16.605469 14.738281 16.304688 15.46875 C 16 16.199219 15.921875 17.003906 16.078125 17.78125 C 16.230469 18.554688 16.613281 19.269531 17.171875 19.828125 C 17.730469 20.386719 18.445312 20.769531 19.21875 20.921875 C 19.996094 21.078125 20.800781 21 21.53125 20.695312 C 22.261719 20.394531 22.886719 19.878906 23.324219 19.222656 C 23.765625 18.566406 24 17.792969 24 17 L 24 4 C 24 3.414062 23.871094 2.832031 23.621094 2.300781 C 23.371094 1.769531 23.007812 1.296875 22.554688 0.921875 Z M 4 22 C 3.605469 22 3.21875 21.882812 2.890625 21.664062 C 2.558594 21.441406 2.304688 21.128906 2.152344 20.765625 C 2 20.398438 1.960938 19.996094 2.039062 19.609375 C 2.117188 19.222656 2.304688 18.867188 2.585938 18.585938 C 2.867188 18.304688 3.222656 18.117188 3.609375 18.039062 C 3.996094 17.960938 4.398438 18 4.765625 18.152344 C 5.128906 18.304688 5.441406 18.558594 5.664062 18.890625 C 5.882812 19.21875 6 19.605469 6 20 C 6 20.53125 5.789062 21.039062 5.414062 21.414062 C 5.039062 21.789062 4.53125 22 4 22 Z M 20.445312 4.847656 L 9.261719 6.945312 C 8.816406 7.027344 8.390625 7.1875 8 7.417969 L 8 6.707031 C 8 6.007812 8.246094 5.328125 8.691406 4.789062 C 9.136719 4.25 9.757812 3.886719 10.445312 3.757812 L 19.632812 2.035156 C 19.921875 1.980469 20.21875 1.992188 20.503906 2.066406 C 20.785156 2.140625 21.050781 2.273438 21.277344 2.460938 C 21.503906 2.648438 21.683594 2.882812 21.808594 3.148438 C 21.933594 3.417969 22 3.707031 22 4 L 22 4.984375 C 21.503906 4.800781 20.96875 4.753906 20.445312 4.847656 Z M 20 19 C 19.605469 19 19.21875 18.882812 18.890625 18.664062 C 18.558594 18.441406 18.304688 18.128906 18.152344 17.765625 C 18 17.398438 17.960938 16.996094 18.039062 16.609375 C 18.117188 16.222656 18.304688 15.867188 18.585938 15.585938 C 18.867188 15.304688 19.222656 15.117188 19.609375 15.039062 C 19.996094 14.960938 20.398438 15 20.765625 15.152344 C 21.128906 15.304688 21.441406 15.558594 21.664062 15.890625 C 21.882812 16.21875 22 16.605469 22 17 C 22 17.53125 21.789062 18.039062 21.414062 18.414062 C 21.039062 18.789062 20.53125 19 20 19 Z M 20 19 "/>
</g>
</svg>

