<svg width="24" height="24" viewBox="0 0 24 24" fill="none" xmlns="http://www.w3.org/2000/svg">
<g id="Categories Icon" clip-path="url(#clip0_6367_13639)">
<path id="Vector" d="M21.4317 1.43805C19.7727 0.856046 18.1317 0.450046 16.5547 0.228046C14.9777 0.00604616 13.2877 -0.0529539 11.5277 0.0470462C9.7047 0.153046 8.1947 1.52205 7.9347 3.30205L7.6497 5.26105C7.5807 5.27005 7.5127 5.27905 7.4437 5.28805C5.8667 5.51005 4.2257 5.91605 2.5667 6.49805C0.842702 7.10405 -0.220298 8.83805 0.0387019 10.623L1.0387 17.491C1.5167 20.78 5.8947 22.845 8.4617 23.784C8.8587 23.93 9.2697 24.001 9.6777 24.001C10.3987 24.001 11.1067 23.778 11.6987 23.345C13.2117 22.241 15.2437 20.512 16.3357 18.534C16.3617 18.487 16.3837 18.438 16.4017 18.389C18.9827 17.336 22.5337 15.373 22.9617 12.429L23.9617 5.56105C24.2207 3.77605 23.1577 2.04205 21.4327 1.43605L21.4317 1.43805ZM10.5197 21.73C10.1327 22.013 9.6197 22.078 9.1477 21.907C5.5457 20.59 3.2537 18.832 3.0177 17.204L2.0177 10.336C1.8947 9.49605 2.4047 8.67605 3.2277 8.38705C4.6327 7.89505 6.0167 7.53905 7.3487 7.32605L6.9347 10.171C6.9037 10.385 6.8897 10.598 6.8917 10.811C6.5737 10.593 6.2207 10.489 5.8627 10.541C5.1407 10.645 4.6197 11.342 4.4237 12.257C4.3587 12.561 4.6177 12.836 4.9247 12.792L7.2067 12.466C7.4617 13.171 7.8567 13.853 8.3287 14.497C6.9647 14.948 5.9907 16.115 5.5897 17.534C5.4597 17.995 5.9837 18.363 6.3817 18.097C7.7137 17.206 8.9297 16.747 10.3047 16.661C10.9907 17.291 11.6817 17.835 12.2707 18.266C12.6927 18.575 13.1707 18.78 13.6687 18.876C12.6527 20.089 11.3387 21.133 10.5187 21.732L10.5197 21.73ZM21.9807 5.27405L20.9807 12.142C20.7447 13.77 18.4527 15.528 14.8517 16.844C14.3797 17.016 13.8577 16.944 13.4537 16.649C10.3757 14.397 8.6797 12.083 8.9157 10.458L9.9147 3.59005C10.0377 2.74505 10.7647 2.09505 11.6437 2.04405C12.1587 2.01405 12.6657 1.99905 13.1657 1.99905C14.2457 1.99905 15.2877 2.06905 16.2767 2.20705C17.7237 2.41005 19.2347 2.78605 20.7707 3.32405C21.5947 3.61405 22.1037 4.43305 21.9817 5.27305L21.9807 5.27405ZM18.5327 11.321C17.5797 12.599 16.1057 13.363 14.5327 13.14C12.9607 12.917 11.7617 11.772 11.2047 10.281C11.0317 9.81805 11.5447 9.39905 11.9757 9.64105C13.9987 10.776 15.7137 11.021 17.9747 10.495C18.4537 10.384 18.8267 10.926 18.5327 11.321ZM19.4087 7.31105C19.4737 7.61505 19.2147 7.89005 18.9077 7.84605L16.4397 7.49305C16.1327 7.44905 15.9607 7.11305 16.1087 6.83905C16.5527 6.01505 17.2477 5.49005 17.9707 5.59505C18.6927 5.69905 19.2127 6.39605 19.4087 7.31105ZM11.4407 6.17305C11.8847 5.34905 12.5797 4.82405 13.3027 4.92905C14.0247 5.03305 14.5457 5.73005 14.7417 6.64505C14.8067 6.94905 14.5477 7.22405 14.2407 7.18005L11.7727 6.82705C11.4657 6.78305 11.2937 6.44705 11.4417 6.17305H11.4407Z" fill="#FAFAFA"/>
</g>
<defs>
<clipPath id="clip0_6367_13639">
<rect width="24" height="24" fill="white"/>
</clipPath>
</defs>
</svg>
