<?xml version="1.0" encoding="UTF-8"?>
<svg xmlns="http://www.w3.org/2000/svg" xmlns:xlink="http://www.w3.org/1999/xlink" width="24px" height="24px" viewBox="0 0 24 24" version="1.1">
<g id="surface1">
<path style=" stroke:none;fill-rule:nonzero;fill:rgb(98.039216%,98.039216%,98.039216%);fill-opacity:1;" d="M 19 0 L 5 0 C 2.242188 0 0 2.242188 0 5 L 0 20 C 0 22.242188 1.792969 24 4.078125 24 L 5.992188 24 C 6.59375 24 7.15625 23.734375 7.542969 23.273438 C 7.917969 22.824219 8.074219 22.242188 7.96875 21.675781 C 7.460938 18.871094 5.40625 16.640625 3.746094 15.242188 C 6.34375 14.238281 10.199219 11.964844 12.003906 7.046875 C 13.804688 11.964844 17.65625 14.238281 20.257812 15.242188 C 18.597656 16.640625 16.542969 18.871094 16.035156 21.675781 C 15.929688 22.242188 16.085938 22.824219 16.460938 23.273438 C 16.847656 23.734375 17.410156 24 18.011719 24 L 19.925781 24 C 22.210938 24 24.003906 22.242188 24.003906 20 L 24.003906 5 C 24.003906 2.242188 21.761719 0 19.003906 0 Z M 5.992188 22 L 4.078125 22 C 2.914062 22 2 21.121094 2 20 L 2 16.40625 C 3.46875 17.554688 5.550781 19.5625 5.992188 22 Z M 2 13.753906 L 2 5 C 2 3.347656 3.347656 2 5 2 L 6.960938 2 C 6.777344 4.484375 5.890625 6.488281 4.316406 7.957031 C 3.914062 8.335938 3.894531 8.96875 4.269531 9.371094 C 4.46875 9.582031 4.734375 9.6875 5 9.6875 C 5.246094 9.6875 5.488281 9.597656 5.683594 9.417969 C 7.671875 7.5625 8.765625 5.0625 8.960938 2 L 10.972656 2 C 10.535156 10.445312 4.558594 13.03125 2 13.753906 Z M 13.027344 2 L 15.039062 2 C 15.234375 5.066406 16.328125 7.5625 18.316406 9.417969 C 18.511719 9.601562 18.757812 9.6875 19 9.6875 C 19.269531 9.6875 19.535156 9.582031 19.730469 9.371094 C 20.109375 8.96875 20.085938 8.335938 19.683594 7.960938 C 18.109375 6.488281 17.222656 4.484375 17.039062 2 L 19 2 C 20.65625 2 22 3.347656 22 5 L 22 13.761719 C 19.441406 13.050781 13.464844 10.484375 13.027344 2 Z M 22 20 C 22 21.121094 21.085938 22 19.921875 22 L 18 22.03125 C 18.445312 19.578125 20.53125 17.558594 22 16.410156 Z M 22 20 "/>
</g>
</svg>
