<?xml version="1.0" encoding="UTF-8"?>
<svg xmlns="http://www.w3.org/2000/svg" xmlns:xlink="http://www.w3.org/1999/xlink" width="24px" height="24px" viewBox="0 0 24 24" version="1.1">
<g id="surface1">
<path style=" stroke:none;fill-rule:nonzero;fill:rgb(98.039216%,98.039216%,98.039216%);fill-opacity:1;" d="M 12 9.414062 L 12 11 C 12 11.554688 12.445312 12 13 12 L 14.585938 12 C 15.652344 12 16.65625 11.585938 17.414062 10.828125 L 23.121094 5.121094 C 24.289062 3.949219 24.289062 2.050781 23.121094 0.878906 C 21.949219 -0.289062 20.050781 -0.289062 18.878906 0.878906 L 13.171875 6.585938 C 12.417969 7.34375 12 8.347656 12 9.414062 Z M 14 9.414062 C 14 8.878906 14.207031 8.378906 14.585938 8 L 20.292969 2.292969 C 20.683594 1.902344 21.316406 1.902344 21.707031 2.292969 C 22.097656 2.683594 22.097656 3.316406 21.707031 3.707031 L 16 9.414062 C 15.621094 9.792969 15.121094 10 14.585938 10 L 14 10 Z M 21 17 L 20 17 L 20 14 C 20 13.445312 19.554688 13 19 13 C 18.445312 13 18 13.445312 18 14 L 18 17 L 13 17 C 11.347656 17 10 18.347656 10 20 L 10 20.5 C 10 21.328125 9.328125 22 8.5 22 C 7.671875 22 7 21.328125 7 20.5 L 7 3.5 C 7 2.960938 6.867188 2.457031 6.648438 2 L 14 2 C 14.554688 2 15 1.554688 15 1 C 15 0.445312 14.554688 0 14 0 L 3.5 0 C 1.570312 0 0 1.570312 0 3.5 L 0 4 C 0 5.652344 1.347656 7 3 7 L 5 7 L 5 20.5 C 5 22.429688 6.570312 24 8.496094 24 L 20.5 24 C 22.429688 24 24 22.429688 24 20.5 L 24 20 C 24 18.347656 22.652344 17 21 17 Z M 5 5 L 3 5 C 2.449219 5 2 4.550781 2 4 L 2 3.5 C 2 2.671875 2.671875 2 3.5 2 C 4.328125 2 5 2.671875 5 3.5 Z M 22 20.5 C 22 21.328125 21.328125 22 20.5 22 L 11.660156 22 C 11.878906 21.546875 12 21.035156 12 20.5 L 12 20 C 12 19.449219 12.449219 19 13 19 L 21 19 C 21.550781 19 22 19.449219 22 20 Z M 22 20.5 "/>
</g>
</svg>
