<?xml version="1.0" encoding="UTF-8"?>
<svg xmlns="http://www.w3.org/2000/svg" xmlns:xlink="http://www.w3.org/1999/xlink" width="24px" height="24px" viewBox="0 0 24 24" version="1.1">
<g id="surface1">
<path style=" stroke:none;fill-rule:nonzero;fill:rgb(98.039216%,98.039216%,98.039216%);fill-opacity:1;" d="M 21.433594 1.4375 C 19.773438 0.855469 18.132812 0.449219 16.554688 0.226562 C 14.976562 0.0078125 13.289062 -0.0546875 11.527344 0.046875 C 9.703125 0.152344 8.195312 1.523438 7.933594 3.300781 L 7.648438 5.261719 C 7.582031 5.269531 7.511719 5.277344 7.445312 5.289062 C 5.867188 5.511719 4.226562 5.917969 2.566406 6.5 C 0.84375 7.105469 -0.21875 8.839844 0.0390625 10.621094 L 1.039062 17.492188 C 1.515625 20.78125 5.894531 22.84375 8.460938 23.785156 C 8.859375 23.929688 9.269531 24 9.675781 24 C 10.398438 24 11.105469 23.777344 11.699219 23.34375 C 13.210938 22.242188 15.242188 20.511719 16.335938 18.535156 C 16.363281 18.488281 16.382812 18.4375 16.402344 18.390625 C 18.984375 17.335938 22.535156 15.371094 22.960938 12.429688 L 23.960938 5.5625 C 24.21875 3.777344 23.15625 2.042969 21.433594 1.4375 Z M 10.519531 21.730469 C 10.132812 22.011719 9.621094 22.078125 9.148438 21.90625 C 5.546875 20.589844 3.253906 18.832031 3.019531 17.203125 L 2.019531 10.335938 C 1.894531 9.496094 2.40625 8.675781 3.226562 8.386719 C 4.632812 7.894531 6.015625 7.539062 7.347656 7.324219 L 6.933594 10.171875 C 6.902344 10.386719 6.890625 10.597656 6.890625 10.8125 C 6.574219 10.59375 6.21875 10.488281 5.863281 10.539062 C 5.140625 10.644531 4.621094 11.34375 4.421875 12.257812 C 4.359375 12.5625 4.617188 12.835938 4.925781 12.792969 L 7.207031 12.464844 C 7.460938 13.171875 7.855469 13.851562 8.328125 14.496094 C 6.964844 14.949219 5.992188 16.113281 5.589844 17.535156 C 5.460938 17.996094 5.984375 18.363281 6.382812 18.097656 C 7.714844 17.207031 8.929688 16.746094 10.304688 16.660156 C 10.992188 17.289062 11.683594 17.835938 12.269531 18.265625 C 12.691406 18.574219 13.171875 18.78125 13.667969 18.875 C 12.652344 20.089844 11.339844 21.132812 10.519531 21.730469 Z M 21.980469 5.273438 L 20.980469 12.140625 C 20.746094 13.769531 18.453125 15.527344 14.851562 16.84375 C 14.378906 17.015625 13.859375 16.945312 13.453125 16.648438 C 10.375 14.398438 8.679688 12.082031 8.914062 10.457031 L 9.914062 3.589844 C 10.039062 2.746094 10.765625 2.09375 11.644531 2.042969 C 12.160156 2.015625 12.664062 2 13.164062 2 C 14.246094 2 15.289062 2.070312 16.277344 2.207031 C 17.722656 2.410156 19.234375 2.785156 20.769531 3.324219 C 21.59375 3.613281 22.105469 4.433594 21.980469 5.273438 Z M 18.53125 11.320312 C 17.578125 12.597656 16.105469 13.363281 14.53125 13.140625 C 12.960938 12.917969 11.761719 11.773438 11.203125 10.28125 C 11.03125 9.816406 11.542969 9.398438 11.976562 9.640625 C 14 10.777344 15.714844 11.019531 17.976562 10.496094 C 18.453125 10.382812 18.828125 10.925781 18.53125 11.320312 Z M 19.410156 7.3125 C 19.472656 7.613281 19.214844 7.890625 18.90625 7.847656 L 16.441406 7.492188 C 16.132812 7.449219 15.960938 7.113281 16.109375 6.839844 C 16.550781 6.015625 17.246094 5.488281 17.96875 5.59375 C 18.691406 5.699219 19.210938 6.394531 19.410156 7.3125 Z M 11.441406 6.171875 C 11.882812 5.347656 12.578125 4.824219 13.300781 4.929688 C 14.023438 5.03125 14.546875 5.730469 14.742188 6.644531 C 14.808594 6.949219 14.546875 7.222656 14.242188 7.179688 L 11.773438 6.828125 C 11.464844 6.78125 11.292969 6.445312 11.441406 6.171875 Z M 11.441406 6.171875 "/>
</g>
</svg>
