<?xml version="1.0" encoding="UTF-8"?>
<svg xmlns="http://www.w3.org/2000/svg" xmlns:xlink="http://www.w3.org/1999/xlink" width="24px" height="24px" viewBox="0 0 24 24" version="1.1">
<g id="surface1">
<path style=" stroke:none;fill-rule:nonzero;fill:rgb(98.039216%,98.039216%,98.039216%);fill-opacity:1;" d="M 19 0 L 5 0 C 2.242188 0 0 2.242188 0 5 L 0 13 C 0 15.757812 2.242188 18 5 18 L 19 18 C 21.757812 18 24 15.757812 24 13 L 24 5 C 24 2.242188 21.757812 0 19 0 Z M 22 13 C 22 14.652344 20.652344 16 19 16 L 5 16 C 3.347656 16 2 14.652344 2 13 L 2 5 C 2 3.347656 3.347656 2 5 2 L 19 2 C 20.652344 2 22 3.347656 22 5 Z M 10 22 C 10 23.105469 9.105469 24 8 24 C 6.894531 24 6 23.105469 6 22 C 6 20.894531 6.894531 20 8 20 C 9.105469 20 10 20.894531 10 22 Z M 15.328125 7.007812 L 11.332031 4.789062 C 9.886719 3.921875 7.890625 5.09375 7.949219 6.777344 L 7.949219 11.21875 C 7.890625 12.902344 9.886719 14.078125 11.332031 13.210938 L 15.328125 10.988281 C 16.867188 10.195312 16.867188 7.804688 15.328125 7.007812 Z M 14.355469 9.242188 L 10.359375 11.464844 C 10.246094 11.527344 10.148438 11.496094 10.085938 11.460938 C 10.023438 11.421875 9.949219 11.351562 9.949219 11.222656 L 9.949219 6.777344 C 9.949219 6.648438 10.023438 6.574219 10.085938 6.539062 C 10.121094 6.519531 10.167969 6.5 10.226562 6.5 C 10.265625 6.5 10.3125 6.507812 10.359375 6.535156 L 14.359375 8.757812 C 14.476562 8.824219 14.503906 8.925781 14.503906 9 C 14.503906 9.074219 14.476562 9.175781 14.359375 9.242188 Z M 24 22 C 24 22.550781 23.550781 23 23 23 L 13 23 C 12.449219 23 12 22.550781 12 22 C 12 21.445312 12.449219 21 13 21 L 23 21 C 23.550781 21 24 21.445312 24 22 Z M 4 22 C 4 22.550781 3.550781 23 3 23 L 1 23 C 0.449219 23 0 22.550781 0 22 C 0 21.445312 0.449219 21 1 21 L 3 21 C 3.550781 21 4 21.445312 4 22 Z M 4 22 "/>
</g>
</svg>
