<?xml version="1.0" encoding="UTF-8"?>
<svg xmlns="http://www.w3.org/2000/svg" xmlns:xlink="http://www.w3.org/1999/xlink" width="24px" height="24px" viewBox="0 0 24 24" version="1.1">
<g id="surface1">
<path style=" stroke:none;fill-rule:nonzero;fill:rgb(98.039216%,98.039216%,98.039216%);fill-opacity:1;" d="M 14.988281 12.726562 C 15.144531 14.507812 13.746094 16 12 16 L 8.023438 16 C 7.332031 16 6.839844 15.335938 7.046875 14.675781 C 7.550781 13.066406 8.984375 10.511719 11.285156 10.066406 C 13.042969 9.730469 14.828125 10.945312 14.988281 12.726562 Z M 23 9 C 22.445312 9 22 9.449219 22 10 L 22 15 C 22 16.65625 20.652344 18 19 18 L 5 18 C 3.347656 18 2 16.65625 2 15 L 2 7 C 2 5.347656 3.347656 4 5 4 L 13 4 C 13.554688 4 14 3.554688 14 3 C 14 2.449219 13.554688 2 13 2 L 5 2 C 2.242188 2 0 4.242188 0 7 L 0 15 C 0 17.757812 2.242188 20 5 20 L 11 20 L 11 22 L 8 22 C 7.449219 22 7 22.449219 7 23 C 7 23.554688 7.449219 24 8 24 L 16 24 C 16.554688 24 17 23.554688 17 23 C 17 22.449219 16.554688 22 16 22 L 13 22 L 13 20 L 19 20 C 21.757812 20 24 17.757812 24 15 L 24 10 C 24 9.449219 23.554688 9 23 9 Z M 13.585938 8.6875 C 13.59375 8.6875 13.601562 8.691406 13.609375 8.695312 C 13.992188 8.863281 14.4375 8.753906 14.71875 8.441406 L 20.359375 2.3125 C 20.707031 1.921875 21.304688 1.890625 21.691406 2.238281 C 21.703125 2.25 21.71875 2.261719 21.730469 2.273438 C 22.097656 2.640625 22.097656 3.238281 21.730469 3.609375 L 15.886719 9.296875 C 15.554688 9.625 15.507812 10.140625 15.761719 10.53125 C 15.765625 10.539062 15.769531 10.542969 15.773438 10.550781 C 16.113281 11.078125 16.851562 11.15625 17.296875 10.710938 L 23.140625 5.027344 C 24.289062 3.875 24.289062 2.011719 23.140625 0.863281 C 21.992188 -0.285156 20.128906 -0.289062 18.976562 0.859375 C 18.9375 0.898438 13.21875 7.117188 13.21875 7.117188 C 12.761719 7.628906 12.957031 8.414062 13.585938 8.6875 Z M 13.585938 8.6875 "/>
</g>
</svg>
