<?xml version="1.0" encoding="UTF-8"?>
<svg xmlns="http://www.w3.org/2000/svg" xmlns:xlink="http://www.w3.org/1999/xlink" width="24px" height="24px" viewBox="0 0 24 24" version="1.1">
<g id="surface1">
<path style=" stroke:none;fill-rule:nonzero;fill:rgb(11.764706%,84.313726%,37.64706%);fill-opacity:1;" d="M 22.574219 10.152344 C 21.707031 9.792969 20.722656 9.988281 20.058594 10.652344 L 19.621094 11.089844 C 19.1875 10.046875 18.410156 9.179688 17.429688 8.632812 C 18.394531 7.71875 19 6.429688 19 5 C 19 2.242188 16.757812 0 14 0 C 12.363281 0 10.910156 0.785156 10 2 C 9.085938 0.785156 7.632812 0 6 0 C 3.242188 0 1 2.242188 1 5 C 1 6.429688 1.601562 7.722656 2.566406 8.632812 C 1.035156 9.488281 0 11.125 0 13 L 0 19 C 0 21.757812 2.242188 24 5 24 L 15 24 C 17.082031 24 18.867188 22.722656 19.621094 20.910156 L 20.058594 21.347656 C 20.503906 21.789062 21.089844 22.027344 21.6875 22.027344 C 21.988281 22.027344 22.289062 21.96875 22.574219 21.847656 C 23.441406 21.492188 24 20.652344 24 19.714844 L 24 12.285156 C 24 11.347656 23.441406 10.511719 22.574219 10.152344 Z M 14 2 C 15.652344 2 17 3.347656 17 5 C 17 6.652344 15.652344 8 14 8 C 12.347656 8 11 6.652344 11 5 C 11 3.347656 12.347656 2 14 2 Z M 6 2 C 7.652344 2 9 3.347656 9 5 C 9 6.652344 7.652344 8 6 8 C 4.347656 8 3 6.652344 3 5 C 3 3.347656 4.347656 2 6 2 Z M 18 19 C 18 20.652344 16.652344 22 15 22 L 5 22 C 3.347656 22 2 20.652344 2 19 L 2 13 C 2 11.347656 3.347656 10 5 10 L 15 10 C 16.652344 10 18 11.347656 18 13 Z M 22 19.714844 C 22 19.886719 21.894531 19.964844 21.808594 20 C 21.722656 20.035156 21.59375 20.054688 21.472656 19.933594 L 20 18.460938 L 20 13.539062 L 21.472656 12.066406 C 21.59375 11.945312 21.722656 11.964844 21.808594 12 C 21.894531 12.035156 22 12.113281 22 12.285156 Z M 22 19.714844 "/>
</g>
</svg>
